<?xml version="1.0" standalone="no"?>
<!DOCTYPE svg PUBLIC "-//W3C//DTD SVG 20010904//EN"
 "http://www.w3.org/TR/2001/REC-SVG-20010904/DTD/svg10.dtd">
<svg version="1.0" xmlns="http://www.w3.org/2000/svg"
 width="400.000000pt" height="275.000000pt" viewBox="0 0 400.000000 275.000000"
 preserveAspectRatio="xMidYMid meet">

<g transform="translate(0.000000,275.000000) scale(0.100000,-0.100000)"
fill="#000000" stroke="none">
<path d="M0 1375 l0 -1375 2000 0 2000 0 0 1375 0 1375 -2000 0 -2000 0 0
-1375z m1349 468 c-8 -9 -52 -60 -97 -112 l-84 -96 -98 -12 c-54 -6 -124 -20
-155 -29 l-58 -18 6 -71 c7 -88 35 -169 103 -301 l53 -104 -91 -104 c-50 -58
-95 -103 -100 -100 -17 11 -110 207 -140 297 -24 73 -30 109 -31 178 0 76 3
91 29 139 18 33 46 66 73 84 25 18 53 50 67 77 41 83 122 132 264 163 87 18
121 22 209 24 58 2 62 1 50 -15z m151 -272 c-1 -16 -19 -33 -30 -26 -6 4 -20
-1 -31 -11 -15 -13 -19 -30 -19 -81 0 -61 -1 -63 -25 -63 -25 0 -25 0 -25 95
0 87 2 95 19 95 11 0 21 -5 23 -12 3 -8 11 -7 27 4 21 15 61 14 61 -1z m164
-13 c11 -15 16 -46 16 -95 0 -66 -2 -73 -20 -73 -11 0 -20 5 -20 10 0 7 -6 7
-19 0 -29 -15 -72 -12 -93 7 -40 36 -7 91 60 100 33 4 42 10 40 22 -3 12 -14
16 -48 14 -42 -2 -65 11 -54 29 3 4 32 8 64 8 49 0 61 -4 74 -22z m96 -35 c9
-29 18 -55 22 -58 3 -4 14 17 23 45 15 46 20 51 43 48 21 -2 28 -12 42 -52 18
-56 22 -54 41 22 11 44 16 52 36 52 13 0 23 -4 23 -8 0 -4 -13 -46 -28 -92
-25 -73 -32 -85 -53 -88 -21 -2 -27 4 -44 54 l-21 58 -21 -55 c-16 -43 -25
-55 -44 -57 -22 -3 -27 5 -56 93 l-32 96 27 -3 c22 -3 29 -11 42 -55z m260
-173 c0 -15 -7 -20 -25 -20 -18 0 -25 5 -25 20 0 15 7 20 25 20 18 0 25 -5 25
-20z m810 -1 c0 -15 -5 -20 -22 -17 -34 5 -37 38 -4 38 20 0 26 -5 26 -21z
m-1315 -74 c17 -16 25 -35 25 -60 l0 -35 -60 0 c-33 0 -60 -4 -60 -9 0 -19 30
-32 67 -29 47 4 53 -21 8 -34 -72 -19 -125 23 -125 99 0 57 33 93 85 93 25 0
44 -8 60 -25z m98 13 c4 -10 7 -10 18 0 18 17 64 15 83 -4 12 -11 16 -36 16
-95 0 -72 -2 -79 -20 -79 -18 0 -20 7 -20 69 0 81 -17 106 -50 76 -16 -14 -20
-31 -20 -82 0 -61 -1 -63 -25 -63 -25 0 -25 0 -25 95 0 87 2 95 19 95 11 0 21
-6 24 -12z m331 -3 c-4 -8 -10 -15 -15 -15 -6 0 -5 -8 1 -19 13 -25 -2 -66
-29 -80 -11 -6 -38 -11 -61 -11 -56 0 -42 -17 23 -25 81 -11 114 -55 65 -89
-26 -18 -119 -22 -149 -6 -20 11 -26 54 -9 65 8 5 7 11 -1 21 -8 10 -9 21 -2
37 6 13 7 31 2 45 -10 27 3 67 28 81 10 6 48 11 85 11 56 0 66 -3 62 -15z m76
-80 c0 -95 0 -95 -25 -95 -25 0 -25 1 -25 88 0 94 3 102 32 102 16 0 18 -10
18 -95z m73 83 c4 -10 7 -10 18 0 18 17 64 15 83 -4 12 -11 16 -36 16 -95 0
-72 -2 -79 -20 -79 -18 0 -20 7 -20 69 0 81 -17 106 -50 76 -16 -14 -20 -31
-20 -82 0 -61 -1 -63 -25 -63 -25 0 -25 0 -25 95 0 87 2 95 19 95 11 0 21 -6
24 -12z m296 -14 c12 -15 21 -41 21 -60 l0 -34 -60 0 c-33 0 -60 -4 -60 -9 0
-19 31 -33 67 -29 28 2 38 -1 41 -13 2 -12 -7 -18 -37 -23 -81 -13 -127 31
-118 111 6 58 33 83 87 83 30 0 43 -6 59 -26z m191 8 c13 -11 23 -33 27 -60
l6 -42 -67 0 c-65 0 -66 -1 -55 -21 9 -18 17 -21 54 -16 32 5 44 3 49 -8 3 -8
2 -16 -2 -18 -24 -14 -69 -16 -99 -6 -65 21 -81 125 -26 169 32 25 84 26 113
2z m98 2 c8 -14 10 -14 21 0 19 23 63 21 59 -1 -2 -11 -13 -18 -27 -19 -36 -2
-51 -30 -51 -96 0 -51 -2 -58 -20 -58 -18 0 -20 7 -20 73 0 39 -3 82 -6 95 -5
18 -2 22 14 22 12 0 25 -7 30 -16z m152 -79 c0 -95 0 -95 -25 -95 -25 0 -25 1
-25 88 0 94 3 102 32 102 16 0 18 -10 18 -95z m68 83 c9 -9 15 -9 24 0 17 17
58 15 80 -5 14 -13 18 -31 18 -95 0 -77 0 -78 -25 -78 -24 0 -25 2 -25 74 0
78 -8 92 -42 74 -15 -7 -18 -22 -18 -78 0 -67 -1 -70 -24 -70 -24 0 -25 2 -28
91 -2 50 -1 93 1 95 8 8 27 4 39 -8z m332 -3 c0 -8 -4 -15 -10 -15 -5 0 -7
-13 -3 -30 9 -46 -27 -80 -84 -80 -60 0 -54 -16 9 -24 28 -4 60 -12 70 -17 25
-13 23 -55 -4 -73 -31 -22 -126 -21 -150 1 -20 18 -24 48 -8 58 6 3 7 17 4 31
-3 13 -1 31 5 38 8 10 9 16 1 21 -17 11 -11 58 12 82 18 20 31 23 90 23 54 0
68 -3 68 -15z m110 3 c0 -5 -4 -6 -10 -3 -14 9 -13 -18 2 -33 9 -9 7 -13 -5
-18 -22 -8 -47 2 -46 18 0 10 2 10 6 1 2 -7 14 -13 24 -13 11 0 17 5 14 10 -4
6 -11 8 -16 5 -5 -4 -9 3 -9 15 0 13 -4 19 -12 14 -6 -4 -9 -3 -5 2 7 12 57
14 57 2z"/>
<path d="M1081 1760 c-73 -20 -146 -55 -169 -83 -10 -12 -2 -12 60 -1 40 7 94
16 119 19 39 5 52 12 78 45 31 39 31 40 9 39 -13 0 -56 -9 -97 -19z"/>
<path d="M763 1506 c-68 -85 -55 -213 41 -420 40 -88 39 -88 98 -14 l30 39
-45 102 c-59 134 -57 129 -81 231 l-22 90 -21 -28z"/>
<path d="M1578 1469 c-24 -14 -23 -36 2 -44 25 -8 50 10 50 36 0 21 -24 25
-52 8z"/>
<path d="M1438 1259 c-33 -19 -21 -39 23 -39 43 0 48 13 13 36 -13 9 -24 10
-36 3z"/>
<path d="M1826 1254 c-21 -21 -20 -41 3 -54 11 -5 22 -10 25 -10 8 0 36 31 36
40 0 5 -7 16 -16 24 -8 9 -19 16 -24 16 -5 0 -16 -7 -24 -16z"/>
<path d="M1808 1094 c-14 -14 14 -34 48 -34 30 0 53 14 41 27 -9 9 -82 15 -89
7z"/>
<path d="M2307 1258 c-32 -17 -20 -38 23 -38 40 0 46 5 32 26 -11 17 -37 23
-55 12z"/>
<path d="M2512 1263 c-7 -3 -17 -13 -22 -24 -10 -17 -7 -19 30 -19 28 0 40 4
40 15 0 17 -29 34 -48 28z"/>
<path d="M3110 1255 c-26 -31 13 -82 44 -56 19 16 21 42 4 59 -16 16 -33 15
-48 -3z"/>
<path d="M3094 1089 c-9 -15 14 -29 48 -29 31 0 47 18 27 31 -20 12 -67 11
-75 -2z"/>
</g>
</svg>
